<svg width="743" height="517" xmlns="http://www.w3.org/2000/svg" preserveAspectRatio="xMidYMid meet">

 <g>
  <title>background</title>
  <rect fill="none" id="canvas_background" height="519" width="745" y="-1" x="-1"/>
 </g>
 <g>
  <title>Layer 1</title>
  <g id="svg_1" fill="#000000" transform="translate(0,800) scale(0.10000000149011612,-0.10000000149011612) ">
   <path id="svg_2" d="m2217.905464,7594c-1029,-246 -1375,-332 -1422,-355c-120,-58 -229,-187 -280,-329c-20,-58 -27,-100 -31,-185c-4,-99 0,-134 42,-357c25,-136 46,-254 46,-263c0,-12 -15,-15 -86,-15l-86,0l6,-27c4,-16 9,-45 13,-65l6,-38l-99,-1c-150,0 -193,-10 -227,-50c-26,-30 -28,-39 -23,-84c4,-44 182,-612 365,-1167c74,-225 75,-226 205,-235l85,-6l6,-46c15,-110 6,-101 98,-101l82,0l13,-52c33,-143 153,-308 269,-371c46,-24 2234,-849 2343,-883c58,-18 192,-18 250,0c110,34 2297,859 2343,883c118,65 236,226 268,368l12,55l83,0l83,0l23,78l24,77l74,7c123,13 146,28 175,118c10,30 23,71 30,90c7,19 24,76 40,125c34,112 65,211 106,340c17,55 42,134 55,175c12,41 37,120 55,175c17,55 42,134 55,175c13,41 32,104 44,139c11,36 20,78 20,93c0,31 -36,94 -60,104c-8,3 -97,9 -197,11c-101,3 -183,10 -183,15c0,4 11,26 25,48c14,22 25,42 25,45c0,3 -29,5 -65,5c-44,0 -65,4 -65,12c0,7 21,125 46,263c42,225 46,261 42,360c-4,84 -11,127 -31,183c-51,146 -158,272 -280,331c-48,23 -379,106 -1430,356c-1247,296 -1376,325 -1450,324c-71,-1 -268,-46 -1442,-325zm2000,67l110,-9l36,-41c20,-22 69,-104 108,-181c71,-137 91,-163 91,-117c0,50 20,60 106,55c50,-3 95,-12 120,-24c35,-17 39,-23 42,-61c2,-32 -2,-47 -17,-62c-18,-18 -33,-21 -121,-21l-101,0l115,-96c77,-64 118,-105 125,-126c24,-69 34,-225 28,-448c-6,-224 -18,-340 -40,-409l-12,-36l-147,-3c-166,-3 -157,-8 -161,87l-2,50l-50,3c-45,3 -50,5 -49,27l1,23l-116,-7c-150,-10 -1052,-10 -1202,0l-116,7l1,-23c1,-22 -4,-24 -49,-27l-51,-3l-2,-52c-4,-93 6,-88 -160,-85l-147,3l-12,37c-28,85 -38,218 -38,493c0,374 -4,360 150,489l116,96l-101,0c-88,0 -103,3 -121,21c-15,15 -19,30 -17,62c3,38 7,44 42,61c25,12 70,21 120,24c86,5 106,-5 106,-55c0,-13 4,-23 9,-23c5,0 42,63 82,141c40,78 89,159 109,182l36,40l95,7c136,10 955,10 1084,1zm2206,-1710c484,-6 753,-12 766,-19c10,-6 27,-26 37,-45l19,-33l-152,-485c-250,-796 -262,-833 -284,-857c-38,-42 -73,-45 -477,-48c-1536,-13 -4595,-22 -5107,-16l-621,8l-34,26c-38,29 -19,-26 -280,787c-168,523 -180,567 -167,589c8,14 26,34 40,44c25,19 56,20 570,29c449,8 1766,16 4609,27c184,0 671,-3 1081,-7zm-1781,-1668c-1,-19 -49,-65 -63,-61c-14,3 -14,7 4,36c18,28 60,46 59,25zm-1943,-100c56,-154 93,-236 98,-218c4,11 25,67 48,125c38,95 45,105 70,108l27,3l0,-160c0,-154 -1,-161 -20,-161c-18,0 -20,8 -22,126l-3,125l-46,-123c-61,-163 -67,-163 -128,2l-46,125l-3,-128c-2,-115 -4,-128 -20,-125c-15,3 -17,20 -20,148c-1,79 0,150 2,157c8,19 56,16 63,-4zm577,-131c31,-81 56,-153 56,-160c0,-7 -7,-12 -16,-12c-9,0 -24,20 -36,50l-21,51l-60,-3l-59,-3l-18,-45c-16,-42 -50,-68 -50,-38c0,7 25,79 56,161c43,109 62,147 74,147c13,0 32,-38 74,-148zm362,115c33,-39 31,-81 -6,-118l-29,-30l34,-58c40,-67 42,-81 18,-81c-11,0 -31,23 -53,63c-31,54 -40,62 -68,65l-32,3l0,-65c0,-59 -2,-66 -20,-66c-19,0 -20,7 -20,161l0,161l76,-4c69,-3 79,-6 100,-31zm361,17c2,-6 -33,-66 -78,-135l-81,-124l81,-3c73,-3 81,-5 81,-23c0,-19 -6,-20 -107,-17c-91,3 -108,5 -107,19c1,9 36,68 78,133c42,64 76,119 76,121c0,2 -33,5 -72,7c-61,3 -73,6 -76,21c-3,16 5,17 99,15c62,-2 104,-7 106,-14zm318,-4c0,-12 -15,-16 -67,-18l-68,-3l0,-44l0,-44l63,-3c47,-2 62,-7 62,-18c0,-11 -15,-16 -62,-18l-63,-3l0,-54l0,-54l68,-3c52,-2 67,-6 67,-18c0,-12 -18,-16 -87,-18l-88,-3l0,161l0,161l88,-3c69,-2 87,-6 87,-18zm271,-105l79,-125l3,126c2,112 4,125 20,122c15,-3 17,-20 17,-158c0,-148 -1,-155 -20,-158c-17,-2 -37,22 -100,123l-80,125l-3,-125c-2,-113 -4,-126 -20,-123c-15,3 -17,20 -20,148c-1,79 0,150 2,157c3,7 14,13 25,13c13,0 41,-36 97,-125z"/>
   <path id="svg_3" d="m3192.905464,7589c-120,-8 -126,-10 -147,-36c-28,-34 -157,-283 -150,-289c2,-3 180,-9 396,-15c356,-9 1165,1 1178,15c7,6 -122,255 -150,288c-21,27 -26,28 -172,38c-176,11 -775,11 -955,-1z"/>
   <path id="svg_4" d="m2682.905464,7020c-40,-10 -90,-60 -90,-91c0,-30 59,-85 105,-98c22,-6 115,-11 208,-11c191,0 184,-4 141,86c-31,65 -52,78 -165,98c-125,22 -160,24 -199,16z"/>
   <path id="svg_5" d="m4597.905464,7023c-87,-11 -202,-36 -226,-48c-28,-15 -79,-103 -79,-137c0,-17 13,-18 168,-18c92,0 185,5 207,11c45,13 105,68 105,97c0,24 -44,79 -68,86c-34,9 -78,13 -107,9z"/>
   <path id="svg_6" d="m3257.905464,6964c-83,-12 -105,-28 -105,-77c0,-18 14,-56 31,-85c50,-87 40,-86 499,-86c459,0 449,-2 499,86c30,51 39,101 23,124c-24,37 -47,39 -487,40c-236,1 -443,0 -460,-2z"/>
   <path id="svg_7" d="m2712.905464,6510c-14,-14 -20,-33 -20,-63l0,-44l147,-10c89,-7 152,-8 159,-2c14,11 37,115 29,129c-4,6 -64,10 -151,10c-131,0 -146,-2 -164,-20z"/>
   <path id="svg_8" d="m4337.905464,6520c-8,-14 15,-118 29,-129c7,-6 70,-5 159,2l147,10l0,44c0,30 -6,49 -20,63c-18,18 -33,20 -164,20c-87,0 -147,-4 -151,-10z"/>
   <path id="svg_9" d="m3267.905464,6503c-34,-9 -54,-34 -72,-91l-17,-54l23,-19c22,-18 47,-19 481,-19c427,0 459,1 480,18c22,18 22,19 6,73c-28,100 2,94 -470,96c-226,0 -420,-1 -431,-4z"/>
   <path id="svg_10" d="m2992.905464,5456c-27,-33 18,-72 48,-42c13,13 14,20 6,34c-15,23 -38,26 -54,8z"/>
   <path id="svg_11" d="m916.905464,5343c3,-16 17,-95 31,-178c30,-173 37,-195 64,-195c14,0 38,30 86,111c37,60 71,109 76,107c5,-2 37,-50 72,-108c60,-100 86,-125 109,-102c11,11 77,373 71,385c-2,4 -17,7 -33,7c-31,0 -34,-6 -61,-173c-7,-42 -17,-76 -21,-75c-5,2 -33,42 -62,88c-71,114 -82,114 -153,0c-30,-47 -57,-86 -61,-88c-5,-1 -19,54 -31,123l-23,125l-35,0c-32,0 -34,-2 -29,-27z"/>
   <path id="svg_12" d="m1479.905464,5363c-13,-12 -7,-143 7,-177c18,-43 57,-73 106,-81l40,-7l0,-58c0,-60 9,-72 53,-62c14,3 17,14 17,61l0,58l41,7c91,15 119,57 119,181l0,86l-32,-3l-33,-3l-5,-85c-5,-78 -7,-86 -30,-97c-31,-16 -154,-17 -183,-2c-33,18 -37,28 -37,112l0,77l-28,0c-16,0 -32,-3 -35,-7z"/>
   <path id="svg_13" d="m1986.905464,5361c-48,-21 -54,-44 -54,-217c0,-135 3,-163 15,-168c40,-15 45,0 45,146c0,77 5,148 10,159c10,17 22,19 110,19c95,0 99,-1 119,-26c27,-34 27,-88 1,-114c-17,-17 -33,-20 -110,-20l-90,0l0,-35l0,-35l91,0c148,0 189,33 189,154c0,62 -2,69 -34,104l-34,37l-119,2c-65,2 -128,-1 -139,-6z"/>
   <path id="svg_14" d="m2444.905464,5350c-56,-34 -72,-73 -72,-173c0,-102 15,-145 64,-180c28,-20 43,-22 143,-22c125,0 149,10 188,76c29,49 29,189 -1,239c-38,65 -73,80 -188,80c-83,0 -107,-4 -134,-20zm253,-82c25,-30 27,-37 23,-106c-3,-66 -6,-77 -31,-98c-25,-21 -38,-24 -112,-24c-74,0 -87,3 -112,24c-26,23 -28,29 -28,106c0,77 2,83 28,106c25,21 37,24 117,24c87,0 89,0 115,-32z"/>
   <path id="svg_15" d="m2842.905464,5335l0,-35l115,0c63,0 115,-3 115,-7c0,-5 -52,-66 -115,-138c-108,-122 -129,-155 -105,-170c6,-3 83,-7 173,-7l162,-2l3,32l3,32l-115,0c-64,0 -116,4 -116,9c0,5 52,67 115,137c162,181 161,184 -72,184l-163,0l0,-35z"/>
   <path id="svg_16" d="m3242.905464,5285c0,-124 28,-166 119,-181l41,-7l0,-57c0,-60 10,-71 53,-62c14,3 17,14 17,62l0,58l40,7c86,14 124,78 118,195l-3,65l-32,3l-33,3l0,-80c0,-90 -9,-106 -66,-117c-57,-11 -152,0 -172,19c-12,13 -18,39 -20,97l-4,80l-29,0l-29,0l0,-85z"/>
   <path id="svg_17" d="m3746.905464,5360c-47,-19 -54,-45 -54,-193c0,-197 -6,-193 265,-189l80,1l3,30l3,31l-136,0l-135,0l-10,26c-13,34 -13,190 0,215c10,17 22,19 145,19l135,0l0,35l0,35l-137,-1c-76,0 -148,-4 -159,-9z"/>
   <path id="svg_18" d="m4099.905464,5363c-4,-3 -7,-19 -7,-34l0,-28l122,-3l122,-3l-122,-135c-116,-129 -138,-164 -109,-176c8,-3 87,-6 175,-7l162,-2l0,33l0,32l-115,0c-63,0 -115,3 -115,8c0,4 54,67 120,141c66,74 120,136 120,138c0,2 -5,13 -10,24c-10,18 -23,19 -174,19c-89,0 -166,-3 -169,-7z"/>
   <path id="svg_19" d="m4629.905464,5355c-96,-34 -126,-96 -127,-257c0,-103 2,-117 18,-120c40,-9 52,3 52,48l0,44l125,0l125,0l0,-44c0,-45 12,-57 53,-48c15,3 17,20 17,186c0,128 -4,186 -12,194c-17,17 -202,15 -251,-3zm193,-135l0,-80l-125,0l-125,0l0,38c0,80 59,122 173,122l77,0l0,-80z"/>
   <path id="svg_20" d="m4982.905464,5180c0,-151 3,-192 13,-196c8,-3 87,-6 175,-7l162,-2l0,32l0,32l-142,3l-143,3l-3,163l-2,162l-30,0l-30,0l0,-190z"/>
   <path id="svg_21" d="m5399.905464,5363c-4,-3 -7,-91 -7,-194c0,-157 2,-188 15,-193c40,-15 45,1 45,135c0,72 4,129 9,129c5,0 67,-61 138,-135c173,-184 167,-186 171,68l2,197l-30,0l-30,0l0,-135c0,-74 -4,-135 -9,-135c-4,0 -65,61 -135,135c-116,123 -150,148 -169,128z"/>
   <path id="svg_22" d="m5869.905464,5363c-4,-3 -7,-91 -7,-194c0,-169 2,-187 18,-191c9,-2 25,-2 35,0c15,3 17,21 17,198l0,194l-28,0c-16,0 -32,-3 -35,-7z"/>
   <path id="svg_23" d="m6143.905464,5358c-51,-14 -79,-36 -106,-83c-23,-38 -25,-52 -25,-167c0,-103 3,-127 15,-132c30,-11 45,5 45,50l0,44l130,0l130,0l0,-44c0,-45 15,-61 45,-50c23,9 22,379 -1,388c-24,9 -195,5 -233,-6zm184,-138l0,-75l-125,0l-125,0l2,39c6,84 56,117 173,113l75,-2l0,-75z"/>
   <path id="svg_24" d="m3179.905464,4083c-9,-27 -17,-51 -17,-55c0,-5 18,-8 40,-8c22,0 40,3 40,6c0,14 -35,104 -40,104c-3,0 -14,-21 -23,-47z"/>
   <path id="svg_25" d="m3502.905464,4105l0,-55l45,0c36,0 48,5 61,25c16,25 12,63 -10,77c-6,4 -30,8 -53,8l-43,0l0,-55z"/>
  </g>
 </g>
</svg>